<svg width="297" height="48" viewBox="0 0 297 48" fill="none" xmlns="http://www.w3.org/2000/svg">
<path d="M37.6542 8.50371C33.8486 8.71631 26.2847 9.49014 21.6153 12.3038C21.2931 12.498 21.1104 12.8432 21.1104 13.2041V38.078C21.1104 38.8676 21.9875 39.3666 22.7271 39.0002C27.5312 36.6199 34.4792 35.9705 37.9146 35.7928C39.0875 35.7319 39.9993 34.8064 39.9993 33.6969V10.6023C40 9.3917 38.9333 8.43262 37.6542 8.50371ZM18.384 12.3038C13.7153 9.49014 6.15139 8.71699 2.34583 8.50371C1.06667 8.43262 0 9.3917 0 10.6023V33.6976C0 34.8077 0.911806 35.7333 2.08472 35.7935C5.52153 35.9712 12.4729 36.6213 17.2771 39.0029C18.0146 39.3687 18.8889 38.8703 18.8889 38.0828V13.1918C18.8889 12.8302 18.7069 12.4986 18.384 12.3038Z" fill="#28A745"/>
<path d="M50.3232 38H47.418V13.0146H61.3291V15.5781H50.3232V24.7383H60.6626V27.2847H50.3232V38ZM67.9087 19.2695V38H65.0718V19.2695H67.9087ZM66.5244 12.2627C66.9915 12.2627 67.3903 12.4165 67.7207 12.7241C68.0625 13.0203 68.2334 13.4875 68.2334 14.1255C68.2334 14.7521 68.0625 15.2192 67.7207 15.5269C67.3903 15.8345 66.9915 15.9883 66.5244 15.9883C66.0345 15.9883 65.6243 15.8345 65.2939 15.5269C64.9749 15.2192 64.8154 14.7521 64.8154 14.1255C64.8154 13.4875 64.9749 13.0203 65.2939 12.7241C65.6243 12.4165 66.0345 12.2627 66.5244 12.2627ZM82.7939 18.9277C85.0156 18.9277 86.6961 19.4746 87.8354 20.5684C88.9748 21.6507 89.5444 23.3939 89.5444 25.7979V38H86.7417V25.9858C86.7417 24.425 86.3828 23.2572 85.665 22.4824C84.9587 21.7077 83.8706 21.3203 82.4009 21.3203C80.3273 21.3203 78.869 21.9071 78.0259 23.0806C77.1828 24.2541 76.7612 25.9574 76.7612 28.1904V38H73.9243V19.2695H76.2144L76.6416 21.9697H76.7954C77.1942 21.3089 77.7012 20.7563 78.3164 20.312C78.9316 19.8563 79.6209 19.5145 80.3843 19.2866C81.1476 19.0474 81.9508 18.9277 82.7939 18.9277ZM102.396 18.9619C104.629 18.9619 106.287 19.4632 107.369 20.4658C108.451 21.4684 108.993 23.0692 108.993 25.2681V38H106.925L106.378 35.2314H106.241C105.717 35.915 105.17 36.4904 104.601 36.9575C104.031 37.4132 103.37 37.7607 102.618 38C101.878 38.2279 100.966 38.3418 99.8838 38.3418C98.7445 38.3418 97.7305 38.1424 96.8418 37.7437C95.9645 37.3449 95.2695 36.741 94.7568 35.9321C94.2555 35.1232 94.0049 34.0978 94.0049 32.856C94.0049 30.9875 94.7454 29.5519 96.2266 28.5493C97.7077 27.5467 99.9635 26.9998 102.994 26.9087L106.224 26.772V25.627C106.224 24.0091 105.877 22.8755 105.182 22.2261C104.487 21.5767 103.507 21.252 102.242 21.252C101.262 21.252 100.328 21.3944 99.4395 21.6792C98.5508 21.964 97.7077 22.3001 96.9102 22.6875L96.0386 20.5342C96.8817 20.1012 97.8501 19.731 98.9438 19.4233C100.038 19.1157 101.188 18.9619 102.396 18.9619ZM106.19 28.7715L103.336 28.8911C101 28.9823 99.354 29.3639 98.397 30.0361C97.4399 30.7083 96.9614 31.6597 96.9614 32.8901C96.9614 33.9611 97.2861 34.7529 97.9355 35.2656C98.585 35.7783 99.4451 36.0347 100.516 36.0347C102.18 36.0347 103.541 35.5732 104.601 34.6504C105.66 33.7275 106.19 32.3433 106.19 30.4976V28.7715ZM123.707 18.9277C125.929 18.9277 127.609 19.4746 128.749 20.5684C129.888 21.6507 130.458 23.3939 130.458 25.7979V38H127.655V25.9858C127.655 24.425 127.296 23.2572 126.578 22.4824C125.872 21.7077 124.784 21.3203 123.314 21.3203C121.24 21.3203 119.782 21.9071 118.939 23.0806C118.096 24.2541 117.674 25.9574 117.674 28.1904V38H114.837V19.2695H117.127L117.555 21.9697H117.708C118.107 21.3089 118.614 20.7563 119.229 20.312C119.845 19.8563 120.534 19.5145 121.297 19.2866C122.061 19.0474 122.864 18.9277 123.707 18.9277ZM143.805 38.3418C142.118 38.3418 140.632 37.9943 139.344 37.2993C138.057 36.6043 137.054 35.5448 136.336 34.1206C135.619 32.6965 135.26 30.902 135.26 28.7373C135.26 26.4701 135.636 24.6187 136.388 23.1831C137.151 21.7362 138.199 20.6652 139.532 19.9702C140.865 19.2752 142.381 18.9277 144.078 18.9277C145.012 18.9277 145.912 19.0246 146.778 19.2183C147.656 19.4006 148.373 19.6341 148.932 19.9189L148.077 22.2944C147.507 22.0666 146.847 21.8615 146.095 21.6792C145.354 21.4969 144.659 21.4058 144.01 21.4058C142.711 21.4058 141.629 21.6849 140.763 22.2432C139.908 22.8014 139.264 23.6217 138.832 24.7041C138.41 25.7865 138.199 27.1195 138.199 28.7031C138.199 30.2184 138.404 31.5116 138.814 32.5825C139.236 33.6535 139.857 34.4738 140.677 35.0435C141.509 35.6017 142.546 35.8809 143.788 35.8809C144.779 35.8809 145.673 35.7783 146.471 35.5732C147.268 35.3568 147.992 35.1061 148.641 34.8213V37.3506C148.014 37.6696 147.314 37.9146 146.539 38.0854C145.776 38.2563 144.864 38.3418 143.805 38.3418ZM160.296 18.9277C161.891 18.9277 163.259 19.2809 164.398 19.9873C165.537 20.6937 166.409 21.6849 167.013 22.9609C167.617 24.2256 167.918 25.7067 167.918 27.4043V29.1646H154.981C155.016 31.3634 155.562 33.0382 156.622 34.189C157.682 35.3397 159.174 35.915 161.1 35.915C162.285 35.915 163.333 35.8068 164.244 35.5903C165.156 35.3739 166.101 35.0549 167.081 34.6333V37.1284C166.135 37.55 165.195 37.8576 164.261 38.0513C163.338 38.245 162.245 38.3418 160.98 38.3418C159.18 38.3418 157.608 37.9772 156.263 37.248C154.93 36.5075 153.893 35.4251 153.153 34.001C152.412 32.5768 152.042 30.8337 152.042 28.7715C152.042 26.7549 152.378 25.0117 153.05 23.542C153.734 22.0609 154.691 20.9215 155.921 20.124C157.163 19.3265 158.622 18.9277 160.296 18.9277ZM160.262 21.252C158.747 21.252 157.539 21.7476 156.639 22.7388C155.739 23.73 155.204 25.1143 155.033 26.8916H164.945C164.933 25.7751 164.757 24.7952 164.415 23.9521C164.085 23.0977 163.578 22.4368 162.894 21.9697C162.21 21.4912 161.333 21.252 160.262 21.252Z" fill="#28A745"/>
<path d="M187.418 38V13.0146H190.323V35.4023H201.415V38H187.418ZM212.489 18.9277C214.084 18.9277 215.451 19.2809 216.59 19.9873C217.73 20.6937 218.601 21.6849 219.205 22.9609C219.809 24.2256 220.111 25.7067 220.111 27.4043V29.1646H207.174C207.208 31.3634 207.755 33.0382 208.814 34.189C209.874 35.3397 211.367 35.915 213.292 35.915C214.477 35.915 215.525 35.8068 216.437 35.5903C217.348 35.3739 218.294 35.0549 219.273 34.6333V37.1284C218.328 37.55 217.388 37.8576 216.454 38.0513C215.531 38.245 214.437 38.3418 213.172 38.3418C211.372 38.3418 209.8 37.9772 208.456 37.248C207.123 36.5075 206.086 35.4251 205.345 34.001C204.605 32.5768 204.234 30.8337 204.234 28.7715C204.234 26.7549 204.57 25.0117 205.243 23.542C205.926 22.0609 206.883 20.9215 208.114 20.124C209.356 19.3265 210.814 18.9277 212.489 18.9277ZM212.455 21.252C210.939 21.252 209.732 21.7476 208.832 22.7388C207.931 23.73 207.396 25.1143 207.225 26.8916H217.137C217.126 25.7751 216.949 24.7952 216.607 23.9521C216.277 23.0977 215.77 22.4368 215.086 21.9697C214.403 21.4912 213.526 21.252 212.455 21.252ZM231.595 38.3418C229.225 38.3418 227.346 37.5329 225.956 35.915C224.577 34.2972 223.888 31.8932 223.888 28.7031C223.888 25.4788 224.594 23.0464 226.007 21.4058C227.42 19.7537 229.299 18.9277 231.646 18.9277C232.638 18.9277 233.504 19.0588 234.244 19.3208C234.985 19.5828 235.623 19.936 236.158 20.3804C236.694 20.8133 237.144 21.3089 237.508 21.8672H237.713C237.668 21.514 237.622 21.0298 237.577 20.4146C237.531 19.7993 237.508 19.298 237.508 18.9106V11.4082H240.345V38H238.055L237.628 35.334H237.508C237.155 35.8923 236.705 36.3993 236.158 36.855C235.623 37.3107 234.979 37.6753 234.227 37.9487C233.486 38.2108 232.609 38.3418 231.595 38.3418ZM232.04 35.9834C234.045 35.9834 235.463 35.4137 236.295 34.2744C237.127 33.1351 237.542 31.4432 237.542 29.1987V28.686C237.542 26.3049 237.144 24.4762 236.346 23.2002C235.56 21.9242 234.125 21.2861 232.04 21.2861C230.296 21.2861 228.992 21.9583 228.126 23.3027C227.26 24.6357 226.827 26.4587 226.827 28.7715C226.827 31.0729 227.254 32.8503 228.109 34.1035C228.975 35.3568 230.285 35.9834 232.04 35.9834ZM251.59 46.4082C249.129 46.4082 247.232 45.9468 245.899 45.0239C244.566 44.1125 243.9 42.8307 243.9 41.1787C243.9 40.0052 244.27 39.0026 245.011 38.1709C245.763 37.3392 246.799 36.7866 248.121 36.5132C247.631 36.2853 247.21 35.9435 246.856 35.4878C246.515 35.0321 246.344 34.508 246.344 33.9155C246.344 33.2319 246.532 32.6338 246.908 32.1211C247.295 31.597 247.882 31.0957 248.668 30.6172C247.688 30.2184 246.891 29.5462 246.275 28.6006C245.672 27.6436 245.37 26.5327 245.37 25.2681C245.37 23.9237 245.649 22.7786 246.207 21.833C246.765 20.876 247.574 20.1468 248.634 19.6455C249.693 19.1442 250.975 18.8936 252.479 18.8936C252.809 18.8936 253.14 18.9106 253.47 18.9448C253.812 18.9676 254.137 19.0075 254.444 19.0645C254.752 19.11 255.02 19.167 255.248 19.2354H261.673V21.064L258.221 21.4912C258.563 21.9355 258.848 22.471 259.076 23.0977C259.304 23.7243 259.417 24.4193 259.417 25.1826C259.417 27.0511 258.785 28.5379 257.521 29.6431C256.256 30.7368 254.518 31.2837 252.308 31.2837C251.784 31.2837 251.249 31.2381 250.702 31.147C250.143 31.4546 249.716 31.7964 249.42 32.1724C249.135 32.5483 248.993 32.9813 248.993 33.4712C248.993 33.8358 249.101 34.1263 249.317 34.3428C249.545 34.5592 249.87 34.7188 250.292 34.8213C250.713 34.9124 251.22 34.958 251.812 34.958H255.111C257.15 34.958 258.711 35.3853 259.793 36.2397C260.887 37.0942 261.434 38.3418 261.434 39.9824C261.434 42.056 260.591 43.6453 258.905 44.7505C257.219 45.8556 254.78 46.4082 251.59 46.4082ZM251.676 44.1865C253.225 44.1865 254.507 44.027 255.521 43.708C256.546 43.4004 257.31 42.9504 257.811 42.3579C258.324 41.7769 258.58 41.0819 258.58 40.2729C258.58 39.521 258.409 38.9513 258.067 38.564C257.726 38.188 257.224 37.9373 256.563 37.812C255.903 37.6753 255.094 37.6069 254.137 37.6069H250.89C250.047 37.6069 249.312 37.738 248.685 38C248.058 38.262 247.574 38.6494 247.232 39.1621C246.902 39.6748 246.737 40.3128 246.737 41.0762C246.737 42.0902 247.164 42.8592 248.019 43.3833C248.873 43.9188 250.092 44.1865 251.676 44.1865ZM252.411 29.2158C253.766 29.2158 254.786 28.874 255.47 28.1904C256.153 27.5068 256.495 26.5099 256.495 25.1997C256.495 23.7983 256.148 22.7502 255.453 22.0552C254.758 21.3488 253.732 20.9956 252.376 20.9956C251.078 20.9956 250.075 21.3602 249.369 22.0894C248.674 22.8071 248.326 23.861 248.326 25.251C248.326 26.527 248.679 27.5068 249.386 28.1904C250.092 28.874 251.1 29.2158 252.411 29.2158ZM272.577 18.9277C274.172 18.9277 275.539 19.2809 276.678 19.9873C277.818 20.6937 278.689 21.6849 279.293 22.9609C279.897 24.2256 280.199 25.7067 280.199 27.4043V29.1646H267.262C267.296 31.3634 267.843 33.0382 268.902 34.189C269.962 35.3397 271.454 35.915 273.38 35.915C274.565 35.915 275.613 35.8068 276.524 35.5903C277.436 35.3739 278.382 35.0549 279.361 34.6333V37.1284C278.416 37.55 277.476 37.8576 276.542 38.0513C275.619 38.245 274.525 38.3418 273.26 38.3418C271.46 38.3418 269.888 37.9772 268.543 37.248C267.21 36.5075 266.174 35.4251 265.433 34.001C264.693 32.5768 264.322 30.8337 264.322 28.7715C264.322 26.7549 264.658 25.0117 265.331 23.542C266.014 22.0609 266.971 20.9215 268.202 20.124C269.444 19.3265 270.902 18.9277 272.577 18.9277ZM272.542 21.252C271.027 21.252 269.819 21.7476 268.919 22.7388C268.019 23.73 267.484 25.1143 267.313 26.8916H277.225C277.214 25.7751 277.037 24.7952 276.695 23.9521C276.365 23.0977 275.858 22.4368 275.174 21.9697C274.491 21.4912 273.613 21.252 272.542 21.252ZM293.529 18.9277C293.905 18.9277 294.298 18.9505 294.708 18.9961C295.118 19.0303 295.483 19.0815 295.802 19.1499L295.443 21.7817C295.135 21.702 294.793 21.6393 294.417 21.5938C294.042 21.5482 293.688 21.5254 293.358 21.5254C292.606 21.5254 291.894 21.6792 291.222 21.9868C290.561 22.283 289.98 22.716 289.479 23.2856C288.977 23.8439 288.584 24.5218 288.299 25.3193C288.014 26.1055 287.872 26.9827 287.872 27.9512V38H285.018V19.2695H287.376L287.684 22.7217H287.804C288.191 22.0267 288.658 21.3944 289.205 20.8247C289.752 20.2437 290.384 19.7822 291.102 19.4404C291.831 19.0986 292.64 18.9277 293.529 18.9277Z" fill="white"/>
</svg>
