<svg xmlns="http://www.w3.org/2000/svg" aria-hidden="true" style="position:absolute;width:0;height:0;overflow:hidden">
  <defs>
    <symbol id="icon-facebook" viewBox="0 0 32 32">
      <path d="M31.5 16.343c0-8.563-6.938-15.5-15.5-15.5S.5 7.781.5 16.343c0 7.75 5.625 14.188 13.063 15.312V20.843H9.625v-4.5h3.938v-3.375c0-3.875 2.313-6.063 5.812-6.063 1.75 0 3.5.313 3.5.313v3.813h-1.937c-1.938 0-2.562 1.187-2.562 2.438v2.875h4.313l-.688 4.5h-3.625v10.812c7.437-1.125 13.125-7.562 13.125-15.312z" />
    </symbol>
    <symbol id="icon-linkedin" viewBox="0 0 32 32">
      <path d="M7.25 32V10.901H.687V32H7.25zM3.933 8.079c2.117 0 3.81-1.764 3.81-3.881 0-2.046-1.694-3.74-3.81-3.74-2.046 0-3.74 1.694-3.74 3.74 0 2.117 1.694 3.881 3.74 3.881zM31.736 32h.071V20.427c0-5.645-1.27-10.02-7.903-10.02-3.175 0-5.292 1.764-6.21 3.387h-.07v-2.893h-6.28V32h6.562V21.556c0-2.752.494-5.363 3.881-5.363s3.458 3.105 3.458 5.575V32h6.492z"/>
    </symbol>
    <symbol id="icon-logo" viewBox="0 0 198 32">
      <path d="M25.103 5.669c-2.537.142-7.58.658-10.693 2.533a.698.698 0 0 0-.337.6v16.583c0 .526.585.859 1.078.615 3.203-1.587 7.835-2.02 10.125-2.138.782-.041 1.39-.658 1.39-1.397V7.069c0-.807-.711-1.446-1.563-1.399zM12.256 8.203C9.144 6.327 4.101 5.812 1.564 5.67.711 5.623 0 6.262 0 7.069v15.397c0 .74.608 1.357 1.39 1.397 2.291.118 6.925.552 10.128 2.14.492.244 1.075-.088 1.075-.613V8.796a.683.683 0 0 0-.337-.592zM33.549 25.333h-1.937V8.676h9.274v1.709h-7.337v6.107h6.893v1.698h-6.893v7.144zm11.723-12.487v12.487h-1.891V12.846h1.891zm-.922-4.671c.311 0 .577.103.798.308.228.197.342.509.342.934 0 .418-.114.729-.342.934-.22.205-.486.308-.798.308-.327 0-.6-.103-.82-.308-.213-.205-.319-.517-.319-.934 0-.425.106-.737.319-.934.22-.205.494-.308.82-.308zm10.846 4.443c1.481 0 2.601.365 3.361 1.094.76.722 1.139 1.884 1.139 3.486v8.135h-1.868v-8.009c0-1.041-.239-1.819-.718-2.336-.471-.516-1.196-.775-2.176-.775-1.382 0-2.355.391-2.917 1.174s-.843 1.918-.843 3.407v6.54h-1.891V12.847h1.527l.285 1.8h.103a3.711 3.711 0 0 1 1.014-1.105c.41-.304.87-.532 1.379-.684a5.354 5.354 0 0 1 1.606-.239zm13.068.023c1.489 0 2.594.334 3.315 1.003s1.083 1.736 1.083 3.202v8.488h-1.379l-.365-1.846h-.091a6.958 6.958 0 0 1-1.093 1.151 4.08 4.08 0 0 1-1.322.695c-.493.152-1.101.228-1.823.228-.76 0-1.436-.133-2.028-.399a3.156 3.156 0 0 1-1.39-1.208c-.334-.539-.501-1.223-.501-2.051 0-1.246.494-2.203 1.481-2.871s2.491-1.033 4.512-1.094l2.153-.091v-.763c0-1.079-.231-1.834-.695-2.267s-1.117-.649-1.96-.649c-.653 0-1.276.095-1.868.285s-1.155.414-1.686.672l-.581-1.436c.562-.289 1.208-.535 1.937-.741s1.496-.308 2.301-.308zm2.529 6.54-1.903.08c-1.557.061-2.655.315-3.293.763s-.957 1.082-.957 1.903c0 .714.216 1.242.649 1.584s1.006.513 1.72.513c1.109 0 2.017-.308 2.723-.923s1.059-1.538 1.059-2.769v-1.151zm11.678-6.563c1.481 0 2.601.365 3.361 1.094.759.722 1.139 1.884 1.139 3.486v8.135h-1.869v-8.009c0-1.041-.239-1.819-.718-2.336-.471-.516-1.196-.775-2.176-.775-1.383 0-2.355.391-2.917 1.174s-.843 1.918-.843 3.407v6.54h-1.891V12.847h1.527l.285 1.8h.102a3.711 3.711 0 0 1 1.014-1.105c.411-.304.87-.532 1.379-.684a5.36 5.36 0 0 1 1.607-.239zM95.87 25.561c-1.125 0-2.115-.232-2.974-.695s-1.527-1.17-2.005-2.119c-.478-.949-.717-2.146-.717-3.589 0-1.511.251-2.746.752-3.703.509-.965 1.207-1.679 2.096-2.142s1.899-.695 3.031-.695c.623 0 1.223.065 1.8.194.585.122 1.063.277 1.436.467l-.57 1.584a9.72 9.72 0 0 0-1.321-.41 5.806 5.806 0 0 0-1.39-.182c-.866 0-1.587.186-2.165.558-.57.372-.999.919-1.287 1.641-.281.722-.422 1.61-.422 2.666 0 1.01.137 1.872.41 2.586.281.714.695 1.261 1.242 1.641.555.372 1.246.558 2.074.558a7.18 7.18 0 0 0 1.789-.205 10.347 10.347 0 0 0 1.447-.501v1.686a5.855 5.855 0 0 1-1.401.49c-.509.114-1.117.171-1.823.171zm10.994-12.943c1.063 0 1.975.235 2.735.706s1.341 1.132 1.743 1.982c.403.843.603 1.831.603 2.962v1.174h-8.625c.023 1.466.387 2.582 1.094 3.35s1.701 1.151 2.985 1.151c.79 0 1.489-.072 2.096-.216s1.238-.357 1.891-.638v1.663a9.209 9.209 0 0 1-1.88.615c-.615.129-1.344.194-2.187.194-1.2 0-2.248-.243-3.145-.729-.889-.494-1.58-1.215-2.073-2.165s-.741-2.112-.741-3.486c0-1.344.224-2.507.672-3.486.456-.987 1.094-1.747 1.914-2.279.828-.532 1.801-.798 2.917-.798zm-.023 1.55c-1.01 0-1.815.33-2.415.991s-.957 1.584-1.071 2.769h6.608c-.008-.744-.125-1.398-.353-1.96-.22-.57-.558-1.01-1.014-1.322-.456-.319-1.041-.478-1.755-.478zM124.945 25.333V8.676h1.937v14.925h7.395v1.732h-9.331zm16.714-12.715c1.063 0 1.975.235 2.734.706s1.341 1.132 1.743 1.982c.403.843.604 1.831.604 2.962v1.174h-8.625c.023 1.466.387 2.582 1.093 3.35s1.702 1.151 2.985 1.151c.79 0 1.489-.072 2.097-.216s1.238-.357 1.891-.638v1.663a9.2 9.2 0 0 1-1.879.615c-.615.129-1.345.194-2.188.194-1.2 0-2.248-.243-3.144-.729-.889-.494-1.58-1.215-2.074-2.165s-.741-2.112-.741-3.486c0-1.344.224-2.507.673-3.486.455-.987 1.093-1.747 1.914-2.279.828-.532 1.8-.798 2.917-.798zm-.022 1.55c-1.011 0-1.815.33-2.415.991s-.957 1.584-1.071 2.769h6.608c-.007-.744-.125-1.398-.353-1.96-.22-.57-.558-1.01-1.014-1.322-.455-.319-1.04-.478-1.754-.478zm12.76 11.393c-1.58 0-2.833-.539-3.759-1.618-.919-1.079-1.379-2.681-1.379-4.808 0-2.15.471-3.771 1.413-4.865.942-1.101 2.195-1.652 3.759-1.652.661 0 1.239.087 1.732.262s.919.41 1.276.706c.357.289.657.619.9.991h.137c-.03-.235-.061-.558-.091-.968s-.046-.744-.046-1.003V7.604h1.891v17.728h-1.527l-.285-1.777h-.08c-.235.372-.535.71-.9 1.014a4.146 4.146 0 0 1-1.287.729c-.494.175-1.079.262-1.755.262zm.296-1.572c1.337 0 2.282-.38 2.837-1.139s.831-1.887.831-3.384v-.342c0-1.587-.265-2.807-.797-3.657-.524-.851-1.481-1.276-2.871-1.276-1.163 0-2.032.448-2.609 1.344-.577.889-.866 2.104-.866 3.646 0 1.534.285 2.719.855 3.555.577.836 1.451 1.253 2.621 1.253zm13.034 6.95c-1.641 0-2.905-.308-3.794-.923-.889-.608-1.333-1.462-1.333-2.563 0-.782.247-1.451.741-2.005.501-.554 1.192-.923 2.073-1.105a2.272 2.272 0 0 1-.843-.684 1.705 1.705 0 0 1-.341-1.048c0-.456.125-.854.376-1.196.258-.349.649-.684 1.173-1.003-.653-.266-1.185-.714-1.595-1.344-.402-.638-.603-1.379-.603-2.222 0-.896.186-1.66.558-2.29.372-.638.911-1.124 1.618-1.458s1.561-.501 2.563-.501c.22 0 .441.011.661.034.228.015.445.042.649.08.205.03.384.068.536.114h4.283v1.219l-2.301.285a4.041 4.041 0 0 1 .797 2.461c0 1.246-.421 2.237-1.264 2.974-.843.729-2.002 1.094-3.475 1.094a6.49 6.49 0 0 1-1.071-.091c-.373.205-.657.433-.855.684-.19.251-.285.539-.285.866 0 .243.072.437.216.581.152.144.369.251.65.319.281.061.619.091 1.013.091h2.199c1.359 0 2.4.285 3.121.854.729.57 1.094 1.401 1.094 2.495 0 1.382-.562 2.442-1.686 3.179s-2.75 1.105-4.877 1.105zm.057-1.481c1.033 0 1.887-.106 2.563-.319.683-.205 1.193-.505 1.527-.9a2.03 2.03 0 0 0 .513-1.39c0-.501-.114-.881-.342-1.139-.227-.251-.562-.418-1.003-.501-.44-.091-.979-.137-1.617-.137h-2.165c-.562 0-1.052.087-1.47.262s-.741.433-.969.775c-.22.342-.33.767-.33 1.276 0 .676.285 1.189.855 1.538.569.357 1.382.535 2.438.535zm.49-9.981c.903 0 1.583-.228 2.039-.684s.683-1.12.683-1.994c0-.934-.231-1.633-.695-2.096-.463-.471-1.147-.706-2.051-.706-.865 0-1.534.243-2.005.729-.463.478-.695 1.181-.695 2.108 0 .851.235 1.504.707 1.96s1.143.684 2.017.684zm13.444-6.859c1.063 0 1.975.235 2.734.706s1.341 1.132 1.743 1.982c.403.843.604 1.831.604 2.962v1.174h-8.625c.023 1.466.387 2.582 1.093 3.35s1.701 1.151 2.985 1.151c.79 0 1.489-.072 2.096-.216s1.239-.357 1.891-.638v1.663a9.2 9.2 0 0 1-1.879.615c-.615.129-1.345.194-2.188.194-1.2 0-2.248-.243-3.145-.729-.889-.494-1.579-1.215-2.073-2.165s-.741-2.112-.741-3.486c0-1.344.224-2.507.673-3.486.455-.987 1.093-1.747 1.914-2.279.828-.532 1.8-.798 2.917-.798zm-.023 1.55c-1.01 0-1.815.33-2.415.991s-.957 1.584-1.071 2.769h6.608c-.007-.744-.125-1.398-.353-1.96-.22-.57-.558-1.01-1.014-1.322-.455-.319-1.041-.478-1.755-.478zm13.991-1.55c.251 0 .513.015.786.046.273.023.517.057.729.103l-.239 1.755a5.974 5.974 0 0 0-1.39-.171c-.501 0-.976.103-1.424.308a3.362 3.362 0 0 0-1.162.866 4.018 4.018 0 0 0-.787 1.356 5.12 5.12 0 0 0-.285 1.755v6.699h-1.903V12.848h1.572l.205 2.301h.08c.258-.463.569-.885.934-1.265a4.215 4.215 0 0 1 1.265-.923 3.761 3.761 0 0 1 1.618-.342z"/>
    </symbol>
    <symbol id="icon-twitter" viewBox="0 0 37 32">
      <path  d="M33.469 8.283c1.458-1.094 2.771-2.406 3.792-3.938a14.363 14.363 0 0 1-4.375 1.167c1.604-.948 2.771-2.406 3.354-4.229a16.177 16.177 0 0 1-4.812 1.896A7.657 7.657 0 0 0 25.813.773a7.655 7.655 0 0 0-7.656 7.656c0 .583.073 1.167.219 1.75A22.215 22.215 0 0 1 2.553 2.158c-.656 1.094-1.021 2.406-1.021 3.865a7.536 7.536 0 0 0 3.427 6.344c-1.24-.073-2.479-.365-3.5-.948v.073c0 3.719 2.625 6.781 6.125 7.511-.583.146-1.313.292-1.969.292-.51 0-.948-.073-1.458-.146.948 3.063 3.792 5.25 7.146 5.323-2.625 2.042-5.906 3.281-9.479 3.281-.656 0-1.24-.073-1.823-.146 3.354 2.187 7.365 3.427 11.74 3.427 14.073 0 21.729-11.594 21.729-21.729V8.284z"/>
    </symbol>
    <symbol id="icon-youtube" viewBox="0 0 45 32">
      <path  d="M43.664 5.831c-.486-1.944-2.025-3.484-3.889-3.97C36.291.889 22.518.889 22.518.889s-13.854 0-17.338.972c-1.863.486-3.403 2.025-3.889 3.97C.319 9.234.319 16.526.319 16.526s0 7.211.972 10.694c.486 1.944 2.025 3.403 3.889 3.889C8.664 32 22.518 32 22.518 32s13.773 0 17.257-.891c1.863-.486 3.403-1.944 3.889-3.889.972-3.484.972-10.694.972-10.694s0-7.292-.972-10.694zM17.982 23.088V9.963l11.505 6.563-11.505 6.563z" />
    </symbol>
  </defs>
</svg>