<svg aria-hidden="true" style="position: absolute; width: 0; height: 0; overflow: hidden;" version="1.1" xmlns="http://www.w3.org/2000/svg" xmlns:xlink="http://www.w3.org/1999/xlink">
  <defs>
    <symbol id="icon-facebook" viewBox="0 0 32 32">
      <path fill="#fff" style="fill: var(--color1, #fff)" d="M31.5 16.343c0-8.563-6.938-15.5-15.5-15.5s-15.5 6.938-15.5 15.5c0 7.75 5.625 14.188 13.063 15.312v-10.812h-3.938v-4.5h3.938v-3.375c0-3.875 2.313-6.063 5.812-6.063 1.75 0 3.5 0.313 3.5 0.313v3.813h-1.937c-1.938 0-2.562 1.187-2.562 2.438v2.875h4.313l-0.688 4.5h-3.625v10.812c7.437-1.125 13.125-7.562 13.125-15.312z"></path>
    </symbol>
    <symbol id="icon-linkedin" viewBox="0 0 32 32">
      <path fill="#fff" style="fill: var(--color1, #fff)" d="M7.25 32v-21.099h-6.563v21.099h6.563zM3.933 8.079c2.117 0 3.81-1.764 3.81-3.881 0-2.046-1.694-3.74-3.81-3.74-2.046 0-3.74 1.694-3.74 3.74 0 2.117 1.694 3.881 3.74 3.881zM31.736 32h0.071v-11.573c0-5.645-1.27-10.020-7.903-10.020-3.175 0-5.292 1.764-6.21 3.387h-0.070v-2.893h-6.28v21.099h6.562v-10.444c0-2.752 0.494-5.363 3.881-5.363s3.458 3.105 3.458 5.575v10.232h6.492z"></path>
    </symbol>
    <symbol id="icon-logo" viewBox="0 0 198 32">
      <path d="M25.103 5.669c-2.537 0.142-7.58 0.658-10.693 2.533-0.215 0.129-0.337 0.36-0.337 0.6v16.583c0 0.526 0.585 0.859 1.078 0.615 3.203-1.587 7.835-2.020 10.125-2.138 0.782-0.041 1.39-0.658 1.39-1.397v-15.396c0-0.807-0.711-1.446-1.563-1.399zM12.256 8.203c-3.112-1.876-8.155-2.391-10.692-2.533-0.853-0.047-1.564 0.592-1.564 1.399v15.397c0 0.74 0.608 1.357 1.39 1.397 2.291 0.118 6.925 0.552 10.128 2.14 0.492 0.244 1.075-0.088 1.075-0.613v-16.594c0-0.241-0.121-0.462-0.337-0.592z"></path>
      <path d="M33.549 25.333h-1.937v-16.657h9.274v1.709h-7.337v6.107h6.893v1.698h-6.893v7.144zM45.272 12.846v12.487h-1.891v-12.487h1.891zM44.35 8.175c0.311 0 0.577 0.103 0.798 0.308 0.228 0.197 0.342 0.509 0.342 0.934 0 0.418-0.114 0.729-0.342 0.934-0.22 0.205-0.486 0.308-0.798 0.308-0.327 0-0.6-0.103-0.82-0.308-0.213-0.205-0.319-0.517-0.319-0.934 0-0.425 0.106-0.737 0.319-0.934 0.22-0.205 0.494-0.308 0.82-0.308zM55.196 12.618c1.481 0 2.601 0.365 3.361 1.094 0.76 0.722 1.139 1.884 1.139 3.486v8.135h-1.868v-8.009c0-1.041-0.239-1.819-0.718-2.336-0.471-0.516-1.196-0.775-2.176-0.775-1.382 0-2.355 0.391-2.917 1.174s-0.843 1.918-0.843 3.407v6.54h-1.891v-12.487h1.527l0.285 1.8h0.103c0.266-0.441 0.604-0.809 1.014-1.105 0.41-0.304 0.87-0.532 1.379-0.684 0.509-0.159 1.044-0.239 1.606-0.239zM68.264 12.641c1.489 0 2.594 0.334 3.315 1.003s1.083 1.736 1.083 3.202v8.488h-1.379l-0.365-1.846h-0.091c-0.349 0.456-0.714 0.839-1.093 1.151-0.38 0.304-0.821 0.535-1.322 0.695-0.493 0.152-1.101 0.228-1.823 0.228-0.76 0-1.436-0.133-2.028-0.399-0.585-0.266-1.048-0.668-1.39-1.208-0.334-0.539-0.501-1.223-0.501-2.051 0-1.246 0.494-2.203 1.481-2.871s2.491-1.033 4.512-1.094l2.153-0.091v-0.763c0-1.079-0.231-1.834-0.695-2.267s-1.117-0.649-1.96-0.649c-0.653 0-1.276 0.095-1.868 0.285s-1.155 0.414-1.686 0.672l-0.581-1.436c0.562-0.289 1.208-0.535 1.937-0.741s1.496-0.308 2.301-0.308zM70.793 19.181l-1.903 0.080c-1.557 0.061-2.655 0.315-3.293 0.763s-0.957 1.082-0.957 1.903c0 0.714 0.216 1.242 0.649 1.584s1.006 0.513 1.72 0.513c1.109 0 2.017-0.308 2.723-0.923s1.059-1.538 1.059-2.769v-1.151zM82.471 12.618c1.481 0 2.601 0.365 3.361 1.094 0.759 0.722 1.139 1.884 1.139 3.486v8.135h-1.869v-8.009c0-1.041-0.239-1.819-0.718-2.336-0.471-0.516-1.196-0.775-2.176-0.775-1.383 0-2.355 0.391-2.917 1.174s-0.843 1.918-0.843 3.407v6.54h-1.891v-12.487h1.527l0.285 1.8h0.102c0.266-0.441 0.604-0.809 1.014-1.105 0.411-0.304 0.87-0.532 1.379-0.684 0.509-0.159 1.045-0.239 1.607-0.239zM95.87 25.561c-1.125 0-2.115-0.232-2.974-0.695s-1.527-1.17-2.005-2.119c-0.478-0.949-0.717-2.146-0.717-3.589 0-1.511 0.251-2.746 0.752-3.703 0.509-0.965 1.207-1.679 2.096-2.142s1.899-0.695 3.031-0.695c0.623 0 1.223 0.065 1.8 0.194 0.585 0.122 1.063 0.277 1.436 0.467l-0.57 1.584c-0.38-0.152-0.82-0.289-1.321-0.41-0.494-0.122-0.957-0.182-1.39-0.182-0.866 0-1.587 0.186-2.165 0.558-0.57 0.372-0.999 0.919-1.287 1.641-0.281 0.722-0.422 1.61-0.422 2.666 0 1.010 0.137 1.872 0.41 2.586 0.281 0.714 0.695 1.261 1.242 1.641 0.555 0.372 1.246 0.558 2.074 0.558 0.661 0 1.257-0.068 1.789-0.205 0.531-0.144 1.014-0.311 1.447-0.501v1.686c-0.418 0.213-0.885 0.376-1.401 0.49-0.509 0.114-1.117 0.171-1.823 0.171zM106.864 12.618c1.063 0 1.975 0.235 2.735 0.706s1.341 1.132 1.743 1.982c0.403 0.843 0.603 1.831 0.603 2.962v1.174h-8.625c0.023 1.466 0.387 2.582 1.094 3.35s1.701 1.151 2.985 1.151c0.79 0 1.489-0.072 2.096-0.216s1.238-0.357 1.891-0.638v1.663c-0.631 0.281-1.257 0.486-1.88 0.615-0.615 0.129-1.344 0.194-2.187 0.194-1.2 0-2.248-0.243-3.145-0.729-0.889-0.494-1.58-1.215-2.073-2.165s-0.741-2.112-0.741-3.486c0-1.344 0.224-2.507 0.672-3.486 0.456-0.987 1.094-1.747 1.914-2.279 0.828-0.532 1.801-0.798 2.917-0.798zM106.841 14.168c-1.010 0-1.815 0.33-2.415 0.991s-0.957 1.584-1.071 2.769h6.608c-0.008-0.744-0.125-1.398-0.353-1.96-0.22-0.57-0.558-1.010-1.014-1.322-0.456-0.319-1.041-0.478-1.755-0.478z"></path>
      <path d="M124.945 25.333v-16.657h1.937v14.925h7.395v1.732h-9.331zM141.659 12.618c1.063 0 1.975 0.235 2.734 0.706s1.341 1.132 1.743 1.982c0.403 0.843 0.604 1.831 0.604 2.962v1.174h-8.625c0.023 1.466 0.387 2.582 1.093 3.35s1.702 1.151 2.985 1.151c0.79 0 1.489-0.072 2.097-0.216s1.238-0.357 1.891-0.638v1.663c-0.63 0.281-1.257 0.486-1.879 0.615-0.615 0.129-1.345 0.194-2.188 0.194-1.2 0-2.248-0.243-3.144-0.729-0.889-0.494-1.58-1.215-2.074-2.165s-0.741-2.112-0.741-3.486c0-1.344 0.224-2.507 0.673-3.486 0.455-0.987 1.093-1.747 1.914-2.279 0.828-0.532 1.8-0.798 2.917-0.798zM141.637 14.168c-1.011 0-1.815 0.33-2.415 0.991s-0.957 1.584-1.071 2.769h6.608c-0.007-0.744-0.125-1.398-0.353-1.96-0.22-0.57-0.558-1.010-1.014-1.322-0.455-0.319-1.040-0.478-1.754-0.478zM154.397 25.561c-1.58 0-2.833-0.539-3.759-1.618-0.919-1.079-1.379-2.681-1.379-4.808 0-2.15 0.471-3.771 1.413-4.865 0.942-1.101 2.195-1.652 3.759-1.652 0.661 0 1.239 0.087 1.732 0.262s0.919 0.41 1.276 0.706c0.357 0.289 0.657 0.619 0.9 0.991h0.137c-0.030-0.235-0.061-0.558-0.091-0.968s-0.046-0.744-0.046-1.003v-5.002h1.891v17.728h-1.527l-0.285-1.777h-0.080c-0.235 0.372-0.535 0.71-0.9 1.014-0.357 0.304-0.786 0.547-1.287 0.729-0.494 0.175-1.079 0.262-1.755 0.262zM154.693 23.989c1.337 0 2.282-0.38 2.837-1.139s0.831-1.887 0.831-3.384v-0.342c0-1.587-0.265-2.807-0.797-3.657-0.524-0.851-1.481-1.276-2.871-1.276-1.163 0-2.032 0.448-2.609 1.344-0.577 0.889-0.866 2.104-0.866 3.646 0 1.534 0.285 2.719 0.855 3.555 0.577 0.836 1.451 1.253 2.621 1.253zM167.727 30.939c-1.641 0-2.905-0.308-3.794-0.923-0.889-0.608-1.333-1.462-1.333-2.563 0-0.782 0.247-1.451 0.741-2.005 0.501-0.554 1.192-0.923 2.073-1.105-0.327-0.152-0.607-0.38-0.843-0.684-0.227-0.304-0.341-0.653-0.341-1.048 0-0.456 0.125-0.854 0.376-1.196 0.258-0.349 0.649-0.684 1.173-1.003-0.653-0.266-1.185-0.714-1.595-1.344-0.402-0.638-0.603-1.379-0.603-2.222 0-0.896 0.186-1.66 0.558-2.29 0.372-0.638 0.911-1.124 1.618-1.458s1.561-0.501 2.563-0.501c0.22 0 0.441 0.011 0.661 0.034 0.228 0.015 0.445 0.042 0.649 0.080 0.205 0.030 0.384 0.068 0.536 0.114h4.283v1.219l-2.301 0.285c0.228 0.296 0.418 0.653 0.57 1.071s0.227 0.881 0.227 1.39c0 1.246-0.421 2.237-1.264 2.974-0.843 0.729-2.002 1.094-3.475 1.094-0.349 0-0.706-0.030-1.071-0.091-0.373 0.205-0.657 0.433-0.855 0.684-0.19 0.251-0.285 0.539-0.285 0.866 0 0.243 0.072 0.437 0.216 0.581 0.152 0.144 0.369 0.251 0.65 0.319 0.281 0.061 0.619 0.091 1.013 0.091h2.199c1.359 0 2.4 0.285 3.121 0.854 0.729 0.57 1.094 1.401 1.094 2.495 0 1.382-0.562 2.442-1.686 3.179s-2.75 1.105-4.877 1.105zM167.784 29.458c1.033 0 1.887-0.106 2.563-0.319 0.683-0.205 1.193-0.505 1.527-0.9 0.342-0.387 0.513-0.851 0.513-1.39 0-0.501-0.114-0.881-0.342-1.139-0.227-0.251-0.562-0.418-1.003-0.501-0.44-0.091-0.979-0.137-1.617-0.137h-2.165c-0.562 0-1.052 0.087-1.47 0.262s-0.741 0.433-0.969 0.775c-0.22 0.342-0.33 0.767-0.33 1.276 0 0.676 0.285 1.189 0.855 1.538 0.569 0.357 1.382 0.535 2.438 0.535zM168.274 19.477c0.903 0 1.583-0.228 2.039-0.684s0.683-1.12 0.683-1.994c0-0.934-0.231-1.633-0.695-2.096-0.463-0.471-1.147-0.706-2.051-0.706-0.865 0-1.534 0.243-2.005 0.729-0.463 0.478-0.695 1.181-0.695 2.108 0 0.851 0.235 1.504 0.707 1.96s1.143 0.684 2.017 0.684zM181.718 12.618c1.063 0 1.975 0.235 2.734 0.706s1.341 1.132 1.743 1.982c0.403 0.843 0.604 1.831 0.604 2.962v1.174h-8.625c0.023 1.466 0.387 2.582 1.093 3.35s1.701 1.151 2.985 1.151c0.79 0 1.489-0.072 2.096-0.216s1.239-0.357 1.891-0.638v1.663c-0.63 0.281-1.257 0.486-1.879 0.615-0.615 0.129-1.345 0.194-2.188 0.194-1.2 0-2.248-0.243-3.145-0.729-0.889-0.494-1.579-1.215-2.073-2.165s-0.741-2.112-0.741-3.486c0-1.344 0.224-2.507 0.673-3.486 0.455-0.987 1.093-1.747 1.914-2.279 0.828-0.532 1.8-0.798 2.917-0.798zM181.695 14.168c-1.010 0-1.815 0.33-2.415 0.991s-0.957 1.584-1.071 2.769h6.608c-0.007-0.744-0.125-1.398-0.353-1.96-0.22-0.57-0.558-1.010-1.014-1.322-0.455-0.319-1.041-0.478-1.755-0.478zM195.686 12.618c0.251 0 0.513 0.015 0.786 0.046 0.273 0.023 0.517 0.057 0.729 0.103l-0.239 1.755c-0.205-0.053-0.433-0.095-0.684-0.125s-0.486-0.046-0.706-0.046c-0.501 0-0.976 0.103-1.424 0.308-0.441 0.197-0.828 0.486-1.162 0.866-0.335 0.372-0.597 0.824-0.787 1.356-0.19 0.524-0.285 1.109-0.285 1.755v6.699h-1.903v-12.487h1.572l0.205 2.301h0.080c0.258-0.463 0.569-0.885 0.934-1.265 0.365-0.387 0.786-0.695 1.265-0.923 0.486-0.228 1.025-0.342 1.618-0.342z"></path>
    </symbol>
    <symbol id="icon-twitter" viewBox="0 0 37 32">
      <path fill="#fff" style="fill: var(--color1, #fff)" d="M33.469 8.283c1.458-1.094 2.771-2.406 3.792-3.938-1.312 0.583-2.844 1.021-4.375 1.167 1.604-0.948 2.771-2.406 3.354-4.229-1.458 0.875-3.135 1.531-4.812 1.896-1.458-1.531-3.427-2.406-5.615-2.406-4.229 0-7.656 3.427-7.656 7.656 0 0.583 0.073 1.167 0.219 1.75-6.344-0.365-12.031-3.427-15.823-8.021-0.656 1.094-1.021 2.406-1.021 3.865 0 2.625 1.313 4.958 3.427 6.344-1.24-0.073-2.479-0.365-3.5-0.948v0.073c0 3.719 2.625 6.781 6.125 7.511-0.583 0.146-1.313 0.292-1.969 0.292-0.51 0-0.948-0.073-1.458-0.146 0.948 3.063 3.792 5.25 7.146 5.323-2.625 2.042-5.906 3.281-9.479 3.281-0.656 0-1.24-0.073-1.823-0.146 3.354 2.187 7.365 3.427 11.74 3.427 14.073 0 21.729-11.594 21.729-21.729 0-0.365 0-0.656 0-1.021z"></path>
    </symbol>
    <symbol id="icon-youtube" viewBox="0 0 45 32">
      <path fill="#fff" style="fill: var(--color1, #fff)" d="M43.664 5.831c-0.486-1.944-2.025-3.484-3.889-3.97-3.484-0.972-17.257-0.972-17.257-0.972s-13.854 0-17.338 0.972c-1.863 0.486-3.403 2.025-3.889 3.97-0.972 3.403-0.972 10.695-0.972 10.695s0 7.211 0.972 10.694c0.486 1.944 2.025 3.403 3.889 3.889 3.484 0.891 17.338 0.891 17.338 0.891s13.773 0 17.257-0.891c1.863-0.486 3.403-1.944 3.889-3.889 0.972-3.484 0.972-10.694 0.972-10.694s0-7.292-0.972-10.694zM17.982 23.088v-13.125l11.505 6.563-11.505 6.563z"></path>
    </symbol>
  </defs>
</svg>